<?xml version="1.0"?>
<svg xmlns:rdf="http://www.w3.org/1999/02/22-rdf-syntax-ns#" xmlns="http://www.w3.org/2000/svg" xmlns:cc="http://web.resource.org/cc/" xmlns:xlink="http://www.w3.org/1999/xlink" xmlns:dc="http://purl.org/dc/elements/1.1/" xmlns:svg="http://www.w3.org/2000/svg" id="svg2" viewBox="0 0 499.99999 500.00001" version="1.1">
  <title id="title3824">Hotel has parking</title>
  <g id="Layer_1" fill-rule="evenodd" transform="translate(22.606 22.606)">
    <path id="path13" d="m227.39-19.217h-227.09c-10.781 0-19.521 8.7401-19.521 19.521v454.18c0 10.78 8.7401 19.521 19.521 19.521h454.18c10.781 0 19.521-8.7411 19.521-19.521v-454.18c0-10.781-8.7401-19.521-19.521-19.521h-227.09z" stroke="#000" stroke-width="6.7782" fill="#fff"/>
    <g id="g3041" transform="matrix(1.0845 0 0 1.0845 -8.325 -10.032)">
      <path id="path95" d="m213.53 156.54c-7.48 0-14.505 0.286-21.076 0.859-6.655 0.409-13.432 0.041-18.434 2.208-5.083 2.127-6.529 2.782-11.695 10.472-5.456 7.689-12.646 20.166-19.508 34.768-6.818 14.438-16.243 38.857-20.623 51.334-4.423 12.312-4.588 10.676-5.621 22.047-1.116 11.453-3.224 33.172-1.075 45.28 2.024 11.699 7.066 19.633 13.349 25.36 6.24 5.686 14.175 8.63 23.97 8.834-0.537 12.068-0.537 21.393 0 28.142 0.29 6.669-0.206 9.613 2.811 12.149 3.058 2.413 10.869 2.537 15.622 2.741 4.67 0.286 9.713 0.162 12.275-1.638 2.397-2.044 1.694-3.6 2.191-10.513 0.414-7.116 0.66-17.425 0.579-31.412h136.59c0.332 13.987 0.744 24.296 1.405 31.412 0.538 6.913-0.206 8.469 2.231 10.513 2.522 1.8 7.399 1.924 12.233 1.638 4.631-0.204 12.44-0.328 15.624-2.741 2.893-2.536 2.397-5.48 2.81-12.149 0.455-6.749 0.455-16.073 0-28.142 9.754-0.204 17.689-3.148 23.972-8.834 6.24-5.728 11.24-13.661 13.391-25.36 1.899-12.108 0.041-33.827-1.116-45.28-1.2-11.371-1.2-9.735-5.579-22.047-4.464-12.477-13.889-36.896-20.624-51.334-6.901-14.603-14.218-27.079-19.548-34.768-5.292-7.69-6.695-8.345-11.697-10.472-5.166-2.167-11.779-1.8-18.392-2.208-6.571-0.573-13.431-0.859-20.747-0.859h-83.319z"/>
      <path id="path97" fill="#fff" d="m214.4 168.97c-6.53-0.286-12.48-0.164-17.854 0.531-5.497 0.532-10.497 0.9-14.506 3.313-4.049 2.373-5.827 4.582-9.464 11.044-3.843 6.422-9.175 18.693-12.812 27.038-3.76 8.18-7.357 16.484-8.389 22.088-0.992 5.481-1.488 8.426 2.811 11.044 4.298 2.413 14.299 3.108 22.855 3.844 8.471 0.737 6.612 0.411 27.897 0.573 21.449 0.082 77.532 0.082 99.23 0 21.366-0.162 20.126 0.164 28.806-0.573 8.638-0.735 18.434-1.431 22.855-3.844 4.216-2.618 3.72-5.563 2.81-11.044-0.991-5.604-4.834-13.908-8.348-22.088-3.761-8.344-9.01-20.616-12.853-27.038-3.846-6.462-5.455-8.671-9.465-11.044-4.135-2.414-9.135-2.781-14.507-3.313-5.415-0.695-11.366-0.817-17.855-0.531h-81.211z"/>
      <path id="path99" fill="#fff" d="m155.96 276.03c14.463 0 26.202 11.617 26.202 25.933 0 14.313-11.738 25.932-26.202 25.932s-26.203-11.618-26.203-25.932c0.001-14.316 11.74-25.933 26.203-25.933"/>
      <path id="path101" fill="#fff" d="m354.06 276.03c14.465 0 26.203 11.617 26.203 25.933 0 14.313-11.738 25.932-26.203 25.932-14.462 0-26.203-11.618-26.203-25.932-0.001-14.316 11.741-25.933 26.203-25.933"/>
      <path id="path103" fill="#fff" d="m255.02 278.8h-37.217c-7.771 0-14.072 4.194-14.072 9.367s6.3 9.367 14.072 9.367h74.434c7.771 0 14.072-4.194 14.072-9.367s-6.301-9.367-14.072-9.367h-37.217z"/>
      <path id="path105" fill="#fff" d="m255.02 304.16h-37.217c-7.771 0-14.072 4.203-14.072 9.387s6.3 9.387 14.072 9.387h74.434c7.771 0 14.072-4.203 14.072-9.387s-6.301-9.387-14.072-9.387h-37.217z"/>
      <path id="path107" d="m102.94 37.001c35.114 0 63.612 28.514 63.612 63.648s-28.498 63.648-63.612 63.648c-35.113 0-63.611-28.515-63.611-63.648s28.498-63.648 63.611-63.648"/>
      <path id="path109" fill="#fff" d="m102.83 49.937c27.463 0 49.752 22.289 49.752 49.752s-22.289 49.752-49.752 49.752-49.752-22.289-49.752-49.752 22.289-49.752 49.752-49.752"/>
      <path id="path111" d="m78.177 75.545h29.952c6.479 0 11.376 1.548 14.616 4.644 3.275 3.096 4.896 7.596 4.896 13.248 0 5.94-1.8 10.548-5.292 13.86-3.6 3.312-8.964 4.968-16.271 4.968h-9.864v21.564h-18.036c-0.001-19.404-0.001-38.844-0.001-58.284zm18.036 24.912h4.5c3.384 0 5.94-0.576 7.308-1.8 1.404-1.188 2.124-2.772 2.124-4.644s-0.647-3.384-1.872-4.716c-1.224-1.224-3.492-1.836-6.947-1.836h-5.112c-0.001 4.32-0.001 8.64-0.001 12.996z"/>
    </g>
  </g>
  <metadata>
    <rdf:RDF>
      <cc:Work>
        <dc:format>image/svg+xml</dc:format>
        <dc:type rdf:resource="http://purl.org/dc/dcmitype/StillImage"/>
        <cc:license rdf:resource="http://creativecommons.org/licenses/publicdomain/"/>
        <dc:publisher>
          <cc:Agent rdf:about="http://openclipart.org/">
            <dc:title>Openclipart</dc:title>
          </cc:Agent>
        </dc:publisher>
        <dc:title>Hotel Icon Has Parking</dc:title>
        <dc:date>2010-04-23T19:42:16</dc:date>
        <dc:description>Hotel Icons. Originally done for a request, this set has been re-mixed to simple black and white versions. </dc:description>
        <dc:source>http://openclipart.org/detail/50497/hotel-icon-has-parking-by-gerald_g</dc:source>
        <dc:creator>
          <cc:Agent>
            <dc:title>Gerald_G</dc:title>
          </cc:Agent>
        </dc:creator>
        <dc:subject>
          <rdf:Bag>
            <rdf:li>car</rdf:li>
            <rdf:li>clip art</rdf:li>
            <rdf:li>clipart</rdf:li>
            <rdf:li>hotel</rdf:li>
            <rdf:li>icon</rdf:li>
            <rdf:li>parking</rdf:li>
            <rdf:li>services</rdf:li>
            <rdf:li>transportation</rdf:li>
          </rdf:Bag>
        </dc:subject>
      </cc:Work>
      <cc:License rdf:about="http://creativecommons.org/licenses/publicdomain/">
        <cc:permits rdf:resource="http://creativecommons.org/ns#Reproduction"/>
        <cc:permits rdf:resource="http://creativecommons.org/ns#Distribution"/>
        <cc:permits rdf:resource="http://creativecommons.org/ns#DerivativeWorks"/>
      </cc:License>
    </rdf:RDF>
  </metadata>
</svg>
